<svg width="18" height="18" viewBox="0 0 18 18" fill="none" xmlns="http://www.w3.org/2000/svg">
<path d="M5.31957 17.1732C1.6329 15.6749 -1.23376 10.9402 0.532904 5.97902C2.1729 1.37746 7.26624 -1.20633 12.0996 0.558372C16.7796 2.2698 19.1929 7.47735 17.4129 12.1655C15.5396 17.12 10.2729 18.858 6.50624 17.6128C6.59957 17.4463 6.6929 17.2798 6.78624 17.1133C7.14624 16.4807 7.3729 15.8014 7.53957 15.1022C7.6729 14.5295 7.8329 13.9635 7.97957 13.3908C7.99957 13.3775 8.02624 13.3641 8.04624 13.3508C8.0729 13.3974 8.08624 13.4574 8.11957 13.4973C8.62624 14.0634 9.27957 14.3564 10.0262 14.383C11.7462 14.4429 13.0396 13.6705 13.9729 12.272C14.6196 11.3064 14.9262 10.2143 15.0329 9.06892C15.0796 8.57613 15.1062 8.09 15.0329 7.59722C14.8862 6.46514 14.3996 5.49289 13.5929 4.68712C12.4929 3.58834 11.1329 3.06226 9.58624 3.00898C8.4929 2.96903 7.4329 3.12219 6.43957 3.56836C4.5129 4.42075 3.29957 5.86581 2.93957 7.96348C2.76624 8.98235 2.89957 9.98124 3.39957 10.9069C3.68624 11.433 4.09957 11.8392 4.6529 12.0856C4.97957 12.2321 5.13957 12.1588 5.23957 11.8059C5.29957 11.5861 5.3529 11.3664 5.40624 11.1466C5.44624 10.9868 5.42624 10.8403 5.31957 10.7138C4.60624 9.88801 4.5729 8.92241 4.7929 7.93018C5.07957 6.63828 5.81957 5.67269 7.00624 5.07336C7.85957 4.6405 8.77957 4.54061 9.71957 4.64716C10.3929 4.72041 11.0129 4.92685 11.5662 5.33973C12.2329 5.83917 12.6396 6.51176 12.7529 7.32419C12.9462 8.68934 12.7262 10.0079 12.1129 11.2532C11.8729 11.7393 11.5462 12.1655 11.0796 12.4718C10.6062 12.7848 10.0996 12.9047 9.54624 12.7515C8.8529 12.5517 8.4529 11.9657 8.57957 11.2532C8.65957 10.807 8.80624 10.3741 8.92624 9.93462C9.0529 9.48179 9.1929 9.02896 9.29957 8.56947C9.35957 8.31642 9.38624 8.04339 9.3729 7.78368C9.33957 6.75149 8.36624 6.20543 7.46624 6.71153C6.91957 7.0112 6.6329 7.51731 6.48624 8.09666C6.30624 8.77591 6.3729 9.45515 6.5929 10.1144C6.64624 10.2676 6.64624 10.4074 6.6129 10.5673C6.27957 11.9457 5.95957 13.3308 5.62624 14.7093C5.43957 15.4618 5.31957 16.2276 5.3329 17.0068C5.3329 17.0667 5.32624 17.1333 5.31957 17.2199V17.1732Z" fill="#F56013"/>
</svg>
